<svg width="932" height="125" viewBox="0 0 932 125" fill="none" xmlns="http://www.w3.org/2000/svg">
<g style="mix-blend-mode:exclusion">
<path d="M29.226 112.024C19.242 112.024 12.0313 109.549 7.594 104.6C3.15667 99.6507 0.938 91.672 0.938 80.664V69.912H22.57V83.608C22.57 89.0693 24.3193 91.8 27.818 91.8C29.7807 91.8 31.146 91.2453 31.914 90.136C32.682 88.9413 33.066 86.9787 33.066 84.248C33.066 80.664 32.6393 77.72 31.786 75.416C30.9327 73.0267 29.8233 71.064 28.458 69.528C27.178 67.9067 24.8313 65.432 21.418 62.104L11.946 52.632C4.60733 45.464 0.938 37.528 0.938 28.824C0.938 19.4373 3.07133 12.312 7.338 7.448C11.69 2.49866 18.0047 0.0239944 26.282 0.0239944C36.1807 0.0239944 43.306 2.66933 47.658 7.95999C52.01 13.1653 54.186 21.3573 54.186 32.536H31.786L31.658 24.984C31.658 23.5333 31.2313 22.3813 30.378 21.528C29.61 20.6747 28.5007 20.248 27.05 20.248C25.3433 20.248 24.0633 20.7173 23.21 21.656C22.3567 22.5947 21.93 23.8747 21.93 25.496C21.93 29.08 23.978 32.792 28.074 36.632L40.874 48.92C43.8607 51.8213 46.3353 54.5947 48.298 57.24C50.2607 59.8 51.8393 62.872 53.034 66.456C54.2287 69.9547 54.826 74.136 54.826 79C54.826 89.8373 52.8207 98.072 48.81 103.704C44.8847 109.251 38.3567 112.024 29.226 112.024ZM87.97 112.024C78.3273 112.024 71.4153 109.379 67.234 104.088C63.0527 98.7973 60.962 90.904 60.962 80.408V42.776C60.962 34.1573 63.4367 27.5867 68.386 23.064C73.3353 18.5413 80.2473 16.28 89.122 16.28C107.127 16.28 116.13 25.112 116.13 42.776V49.56C116.13 56.3867 116.045 61.9333 115.874 66.2H83.362V84.376C83.362 87.6187 83.7033 90.1787 84.386 92.056C85.0687 93.848 86.5193 94.744 88.738 94.744C90.4447 94.744 91.6393 94.232 92.322 93.208C93.09 92.184 93.5167 91.032 93.602 89.752C93.7727 88.3867 93.858 86.424 93.858 83.864V74.776H116.13V80.152C116.13 91.0747 113.997 99.1387 109.73 104.344C105.549 109.464 98.2953 112.024 87.97 112.024ZM93.858 55.064V43.032C93.858 36.2907 92.194 32.92 88.866 32.92C85.1113 32.92 83.234 36.2907 83.234 43.032V55.064H93.858ZM141.254 112.024C134.001 112.024 129.009 109.635 126.278 104.856C123.633 99.992 122.31 93.08 122.31 84.12C122.31 76.7813 123.249 71.1493 125.126 67.224C127.089 63.2987 129.777 60.44 133.19 58.648C136.603 56.7707 141.809 54.7227 148.806 52.504L154.95 50.456V50.2V40.856C154.95 38.3813 154.438 36.504 153.414 35.224C152.475 33.8587 151.323 33.176 149.958 33.176C148.763 33.176 147.697 33.7307 146.758 34.84C145.905 35.9493 145.478 37.4427 145.478 39.32V44.952H123.718V41.88C123.718 32.664 125.851 26.0933 130.118 22.168C134.47 18.2427 141.51 16.28 151.238 16.28C159.003 16.28 165.318 18.328 170.182 22.424C175.046 26.4347 177.478 32.152 177.478 39.576V111H155.206V99.864C154.097 103.704 152.305 106.691 149.83 108.824C147.441 110.957 144.582 112.024 141.254 112.024ZM150.086 94.616C151.793 94.616 152.987 93.9333 153.67 92.568C154.438 91.1173 154.822 89.368 154.822 87.32V61.208C151.494 62.488 149.019 64.1093 147.398 66.072C145.862 68.0347 145.094 70.7653 145.094 74.264V86.296C145.094 91.8427 146.758 94.616 150.086 94.616ZM186.105 17.304H208.505V27.672C209.614 24.0027 211.534 21.1867 214.265 19.224C217.081 17.176 220.537 16.152 224.633 16.152V34.84C221.476 34.84 217.977 35.3093 214.137 36.248C210.382 37.1013 208.505 38.1253 208.505 39.32V111H186.105V17.304ZM258.265 112.024C248.025 112.024 240.644 109.421 236.121 104.216C231.598 99.0107 229.337 91.032 229.337 80.28V51.352C229.337 43.2453 230.19 36.6747 231.897 31.64C233.689 26.52 236.633 22.68 240.729 20.12C244.91 17.56 250.67 16.28 258.009 16.28C266.03 16.28 272.558 18.3707 277.593 22.552C282.628 26.7333 285.145 32.5787 285.145 40.088V54.424H262.361V41.24C262.361 38.7653 262.02 36.888 261.337 35.608C260.654 34.2427 259.332 33.56 257.369 33.56C253.7 33.56 251.865 36.1627 251.865 41.368V86.808C251.865 88.9413 252.292 90.776 253.145 92.312C254.084 93.7627 255.449 94.488 257.241 94.488C259.033 94.488 260.356 93.7627 261.209 92.312C262.148 90.8613 262.574 88.984 262.489 86.68L262.361 70.936H285.145V87.32C285.145 95 282.628 101.059 277.593 105.496C272.644 109.848 266.201 112.024 258.265 112.024ZM292.98 0.407997H316.02V26.52C318.409 19.6933 322.975 16.28 329.716 16.28C336.031 16.28 340.809 18.2853 344.052 22.296C347.295 26.3067 348.916 31.8107 348.916 38.808V111H326.516V40.216C326.516 38.168 326.047 36.504 325.108 35.224C324.169 33.944 322.804 33.304 321.012 33.304C319.476 33.304 318.239 33.9867 317.3 35.352C316.447 36.632 316.02 38.2107 316.02 40.088V111H292.98V0.407997ZM401.301 111V74.776L383.765 1.048H405.525L411.669 38.296L417.813 1.048H439.573L422.037 74.776V111H401.301ZM471.994 112.024C453.306 112.024 443.962 102.339 443.962 82.968V45.336C443.962 36.4613 446.437 29.4213 451.386 24.216C456.421 18.9253 463.29 16.28 471.994 16.28C480.698 16.28 487.525 18.9253 492.474 24.216C497.509 29.4213 500.026 36.4613 500.026 45.336V82.968C500.026 102.339 490.682 112.024 471.994 112.024ZM471.994 94.744C473.786 94.744 475.109 94.104 475.962 92.824C476.815 91.544 477.242 89.7947 477.242 87.576V41.752C477.242 36.2907 475.493 33.56 471.994 33.56C468.495 33.56 466.746 36.2907 466.746 41.752V87.576C466.746 89.7947 467.173 91.544 468.026 92.824C468.879 94.104 470.202 94.744 471.994 94.744ZM526.403 112.024C519.406 112.024 514.584 109.933 511.939 105.752C509.379 101.571 508.099 95.3413 508.099 87.064V17.304H530.627V82.584C530.627 83.1813 530.627 84.8027 530.627 87.448C530.627 90.008 531.011 91.8427 531.779 92.952C532.632 93.976 533.912 94.488 535.619 94.488C537.923 94.488 539.374 93.5493 539.971 91.672C540.568 89.7093 540.867 86.936 540.867 83.352V82.584L540.995 17.304H563.267V111H540.867V101.016C539.331 104.941 537.539 107.757 535.491 109.464C533.443 111.171 530.414 112.024 526.403 112.024ZM572.23 17.304H594.63V27.672C595.739 24.0027 597.659 21.1867 600.39 19.224C603.206 17.176 606.662 16.152 610.758 16.152V34.84C607.601 34.84 604.102 35.3093 600.262 36.248C596.507 37.1013 594.63 38.1253 594.63 39.32V111H572.23V17.304ZM643.67 111L654.294 1.048H691.542L702.038 111H681.174L679.638 93.208H666.326L665.046 111H643.67ZM667.99 75.672H677.974L673.11 19.736H672.086L667.99 75.672ZM733.571 124.696C726.915 124.696 721.667 124.141 717.827 123.032C714.072 122.008 710.36 120.003 706.691 117.016L714.371 104.088C719.832 107.331 725.251 108.952 730.627 108.952C734.126 108.952 736.771 107.843 738.563 105.624C740.355 103.405 741.251 100.376 741.251 96.536V91.416C739.459 97.816 734.723 101.016 727.043 101.016C720.643 101.016 715.907 98.84 712.835 94.488C709.848 90.136 708.355 84.3333 708.355 77.08V41.88C708.355 33.6027 709.72 27.288 712.451 22.936C715.267 18.4987 720.131 16.28 727.043 16.28C731.054 16.28 734.211 17.304 736.515 19.352C738.904 21.3147 740.483 24.1307 741.251 27.8V17.304H764.163V95.128C764.163 105.624 761.731 113.176 756.867 117.784C752.003 122.392 744.238 124.696 733.571 124.696ZM736.003 84.12C739.502 84.12 741.251 80.9627 741.251 74.648V41.24C741.251 39.3627 740.739 37.5707 739.715 35.864C738.691 34.1573 737.411 33.304 735.875 33.304C733.912 33.304 732.59 34.0293 731.907 35.48C731.224 36.8453 730.883 38.7653 730.883 41.24V74.648C730.883 77.464 731.224 79.768 731.907 81.56C732.59 83.2667 733.955 84.12 736.003 84.12ZM799.095 112.024C789.452 112.024 782.54 109.379 778.359 104.088C774.178 98.7973 772.087 90.904 772.087 80.408V42.776C772.087 34.1573 774.562 27.5867 779.511 23.064C784.46 18.5413 791.372 16.28 800.247 16.28C818.252 16.28 827.255 25.112 827.255 42.776V49.56C827.255 56.3867 827.17 61.9333 826.999 66.2H794.487V84.376C794.487 87.6187 794.828 90.1787 795.511 92.056C796.194 93.848 797.644 94.744 799.863 94.744C801.57 94.744 802.764 94.232 803.447 93.208C804.215 92.184 804.642 91.032 804.727 89.752C804.898 88.3867 804.983 86.424 804.983 83.864V74.776H827.255V80.152C827.255 91.0747 825.122 99.1387 820.855 104.344C816.674 109.464 809.42 112.024 799.095 112.024ZM804.983 55.064V43.032C804.983 36.2907 803.319 32.92 799.991 32.92C796.236 32.92 794.359 36.2907 794.359 43.032V55.064H804.983ZM835.355 17.304H857.755V29.208C858.694 25.368 860.315 22.2533 862.619 19.864C864.923 17.4747 867.995 16.28 871.835 16.28C878.15 16.28 882.8 18.2427 885.787 22.168C888.859 26.008 890.395 31.512 890.395 38.68V111H868.379V40.984C868.379 38.936 867.952 37.1867 867.099 35.736C866.331 34.2853 865.094 33.56 863.387 33.56C861.083 33.56 859.547 34.6267 858.779 36.76C858.096 38.808 857.755 41.5813 857.755 45.08V111H835.355V17.304ZM918.558 112.024C912.67 112.024 908.617 110.787 906.398 108.312C904.179 105.837 903.07 101.869 903.07 96.408V37.912H896.798V20.888H903.07V1.048H924.83V20.888H931.23V37.912H924.83V90.52C924.83 92.1413 924.958 93.336 925.214 94.104C925.47 94.872 926.153 95.256 927.262 95.256C928.115 95.256 928.926 95.2133 929.694 95.128C930.462 95.0427 930.974 95 931.23 95V110.36C929.95 110.701 928.073 111.043 925.598 111.384C923.209 111.811 920.862 112.024 918.558 112.024Z" fill="url(#paint0_linear_97_8774)"/>
</g>
<defs>
<linearGradient id="paint0_linear_97_8774" x1="466" y1="-37" x2="466" y2="155" gradientUnits="userSpaceOnUse">
<stop offset="0.295" stop-color="#525087"/>
<stop offset="0.715" stop-color="#525087" stop-opacity="0"/>
</linearGradient>
</defs>
</svg>
