<svg width="28" height="28" viewBox="0 0 28 28" fill="none" xmlns="http://www.w3.org/2000/svg">
<circle cx="14" cy="14" r="14" fill="#D9D9D9" fill-opacity="0.11"/>
<circle cx="14" cy="14" r="13" stroke="white" stroke-opacity="0.2" stroke-width="2"/>
<g clip-path="url(#clip0_97_8808)">
<path d="M2 14C2 17.1826 3.26428 20.2348 5.51472 22.4853C7.76516 24.7357 10.8174 26 14 26C17.1826 26 20.2348 24.7357 22.4853 22.4853C24.7357 20.2348 26 17.1826 26 14C26 10.8174 24.7357 7.76516 22.4853 5.51472C20.2348 3.26428 17.1826 2 14 2C10.8174 2 7.76516 3.26428 5.51472 5.51472C3.26428 7.76516 2 10.8174 2 14Z" fill="#04B7FE"/>
<path d="M10.4014 13.0317H6.61536L14.2307 22.3077L10.7692 13.0317H10.4014ZM12.2692 12.9938L14.2307 22.3031L16.0178 12.9938H12.2692ZM12.3015 11.8875H16.1161L14.1758 9.21708L12.302 11.8875H12.3015ZM14.2307 22.3077L21.8461 13.0317H17.69L14.2307 22.3077ZM14.732 8H18.4861L21.8175 11.9074H17.6286L14.732 8ZM9.76951 8H13.4184L10.8537 11.8958H6.61951L9.76951 8Z" fill="white"/>
</g>
<defs>
<clipPath id="clip0_97_8808">
<rect width="24" height="24" fill="white" transform="translate(2 2)"/>
</clipPath>
</defs>
</svg>
